REM DIRINDEX 1\2,1\3
REM DIRNAME cjc133,folder01,folder02
TITLE ""
FILE "DISC1Track04.mp3" MP3
  TRACK 01 AUDIO
    TITLE "0:"
    INDEX 01 00:00:00
  TRACK 02 AUDIO
    TITLE "3:cjc133_0140"
    INDEX 01 00:00:17
  TRACK 03 AUDIO
    TITLE "0:"
    INDEX 01 00:01:11
  TRACK 04 AUDIO
    TITLE "2:cjc133_0141"
    INDEX 01 00:01:56
  TRACK 05 AUDIO
    TITLE "2:cjc133_0142"
    INDEX 01 00:03:53
  TRACK 06 AUDIO
    TITLE "2:cjc133_0143"
    INDEX 01 00:06:18
  TRACK 07 AUDIO
    TITLE "0:"
    INDEX 01 00:07:68
  TRACK 08 AUDIO
    TITLE "2:cjc133_0144"
    INDEX 01 00:08:46
  TRACK 09 AUDIO
    TITLE "2:cjc133_0145"
    INDEX 01 00:10:02
  TRACK 10 AUDIO
    TITLE "2:cjc133_0146"
    INDEX 01 00:12:38
  TRACK 11 AUDIO
    TITLE "0:"
    INDEX 01 00:14:07
  TRACK 12 AUDIO
    TITLE "2:cjc133_0147"
    INDEX 01 00:14:60
  TRACK 13 AUDIO
    TITLE "2:cjc133_0148"
    INDEX 01 00:16:28
  TRACK 14 AUDIO
    TITLE "2:cjc133_0149"
    INDEX 01 00:19:05
  TRACK 15 AUDIO
    TITLE "0:"
    INDEX 01 00:20:59
  TRACK 16 AUDIO
    TITLE "2:cjc133_0150"
    INDEX 01 00:21:39
  TRACK 17 AUDIO
    TITLE "2:cjc133_0151"
    INDEX 01 00:23:04
  TRACK 18 AUDIO
    TITLE "2:cjc133_0152"
    INDEX 01 00:25:56
  TRACK 19 AUDIO
    TITLE "0:"
    INDEX 01 00:27:43
  TRACK 20 AUDIO
    TITLE "2:cjc133_0153"
    INDEX 01 00:28:21
  TRACK 21 AUDIO
    TITLE "2:cjc133_0154"
    INDEX 01 00:29:52
  TRACK 22 AUDIO
    TITLE "2:cjc133_0155"
    INDEX 01 00:32:35
  TRACK 23 AUDIO
    TITLE "0:"
    INDEX 01 00:34:22
  TRACK 24 AUDIO
    TITLE "2:cjc133_0156"
    INDEX 01 00:34:67
  TRACK 25 AUDIO
    TITLE "2:cjc133_0157"
    INDEX 01 00:36:58
  TRACK 26 AUDIO
    TITLE "2:cjc133_0158"
    INDEX 01 00:39:49
  TRACK 27 AUDIO
    TITLE "0:"
    INDEX 01 00:41:44
  TRACK 28 AUDIO
    TITLE "2:cjc133_0159"
    INDEX 01 00:42:18
  TRACK 29 AUDIO
    TITLE "2:cjc133_0160"
    INDEX 01 00:44:05
  TRACK 30 AUDIO
    TITLE "2:cjc133_0161"
    INDEX 01 00:46:66
  TRACK 31 AUDIO
    TITLE "0:"
    INDEX 01 00:48:65
  TRACK 32 AUDIO
    TITLE "2:cjc133_0162"
    INDEX 01 00:49:45
  TRACK 33 AUDIO
    TITLE "2:cjc133_0163"
    INDEX 01 00:50:68
  TRACK 34 AUDIO
    TITLE "2:cjc133_0164"
    INDEX 01 00:53:74
  TRACK 35 AUDIO
    TITLE "0:"
    INDEX 01 00:56:08
  TRACK 36 AUDIO
    TITLE "2:cjc133_0165"
    INDEX 01 00:56:61
  TRACK 37 AUDIO
    TITLE "2:cjc133_0166"
    INDEX 01 00:58:30
  TRACK 38 AUDIO
    TITLE "2:cjc133_0167"
    INDEX 01 01:01:54
  TRACK 39 AUDIO
    TITLE "0:"
    INDEX 01 01:04:07
  TRACK 40 AUDIO
    TITLE "2:cjc133_0168"
    INDEX 01 01:04:56
  TRACK 41 AUDIO
    TITLE "2:cjc133_0169"
    INDEX 01 01:06:32
  TRACK 42 AUDIO
    TITLE "2:cjc133_0170"
    INDEX 01 01:09:38
  TRACK 43 AUDIO
    TITLE "0:"
    INDEX 01 01:11:58
  TRACK 44 AUDIO
    TITLE "2:cjc133_0171"
    INDEX 01 01:12:36
  TRACK 45 AUDIO
    TITLE "2:cjc133_0172"
    INDEX 01 01:13:67
  TRACK 46 AUDIO
    TITLE "2:cjc133_0173"
    INDEX 01 01:16:42
  TRACK 47 AUDIO
    TITLE "0:"
    INDEX 01 01:18:23
  TRACK 48 AUDIO
    TITLE "2:cjc133_0174"
    INDEX 01 01:19:03
  TRACK 49 AUDIO
    TITLE "2:cjc133_0175"
    INDEX 01 01:20:67
  TRACK 50 AUDIO
    TITLE "2:cjc133_0176"
    INDEX 01 01:23:65
  TRACK 51 AUDIO
    TITLE "0:"
    INDEX 01 01:25:70
  TRACK 52 AUDIO
    TITLE "2:cjc133_0177"
    INDEX 01 01:26:46
  TRACK 53 AUDIO
    TITLE "2:cjc133_0178"
    INDEX 01 01:28:33
  TRACK 54 AUDIO
    TITLE "2:cjc133_0179"
    INDEX 01 01:31:63
  TRACK 55 AUDIO
    TITLE "0:"
    INDEX 01 01:34:20
  TRACK 56 AUDIO
    TITLE "2:cjc133_0180"
    INDEX 01 01:34:73
  TRACK 57 AUDIO
    TITLE "2:cjc133_0181"
    INDEX 01 01:37:24
  TRACK 58 AUDIO
    TITLE "2:cjc133_0182"
    INDEX 01 01:40:70
  TRACK 59 AUDIO
    TITLE "0:"
    INDEX 01 01:43:47
  TRACK 60 AUDIO
    TITLE "2:cjc133_0183"
    INDEX 01 01:44:17
  TRACK 61 AUDIO
    TITLE "2:cjc133_0184"
    INDEX 01 01:45:61
  TRACK 62 AUDIO
    TITLE "2:cjc133_0185"
    INDEX 01 01:49:39
  TRACK 63 AUDIO
    TITLE "0:"
    INDEX 01 01:52:16
